<?xml version="1.0" encoding="utf-8"?>
<!-- Generator: Adobe Illustrator 27.5.0, SVG Export Plug-In . SVG Version: 6.00 Build 0)  -->
<svg version="1.1" xmlns="http://www.w3.org/2000/svg" xmlns:xlink="http://www.w3.org/1999/xlink" x="0px" y="0px"
	 viewBox="0 0 3710 3710" style="enable-background:new 0 0 3710 3710;" xml:space="preserve">
<g id="Background">
	<g>
		<g>
			<rect style="fill:#FFFFFF;" width="3710" height="3710"/>
		</g>
	</g>
</g>
<g id="Illustration">
	<g>
		<path style="fill:#F4F7FA;" d="M1659.208,714.167C1535.331,959.74,821.962,614.974,627.61,909.469
			c-190.552,288.736,120.461,532.754-10.016,1191.849c-70.172,354.47-198.527,477.847-120.186,696.08
			c80.817,225.13,320.538,381.095,535.831,435.676c444.119,112.592,637.598-243.427,1136.763-120.186
			c171.765,42.406,230.248,104.657,410.636,105.163c43.201,0.12,379.871,1.358,555.864-195.303
			c273.041-305.105-178.35-709.112-92.658-1645.394c14.323-156.488,43.995-331.63-52.57-514.226
			c-133.815-253.031-415.613-339.293-524.208-374.93c-264.157-86.686-666.483-99.101-774.161,86.789
			C1658.096,635.076,1687.077,658.919,1659.208,714.167z"/>
		<g>
			<g>
				<defs>
					<path id="SVGID_1_" d="M1747.625,2346.468c-77.518-88.95-52.036-266.247-0.769-376.901
						c59.855-129.192,130.834-115.696,169.565-219.794c72.114-193.815-144.361-320.079-87.137-521.299
						c46.78-164.497,209.204-142.534,252.719-327.057c31.401-133.15-38.078-208.584,27.446-315.473
						c5.601-9.137,67.425-106.815,164.382-109.53c97.859-2.74,174.275,92.865,206.556,162.737
						c59.67,129.158-22.559,189.663-8.009,368.729c19.811,243.793,183.957,275.951,161.439,458.477
						c-18.594,150.724-134.812,163.561-152.109,331.089c-16.061,155.567,78.316,201.028,57.482,304.652
						C2491.262,2340.484,1905.739,2527.901,1747.625,2346.468z"/>
				</defs>
				
					<linearGradient id="SVGID_00000067219864976101175740000007761568647066633144_" gradientUnits="userSpaceOnUse" x1="1865.9771" y1="644.6725" x2="2156.8213" y2="1667.6404">
					<stop  offset="0.0036" style="stop-color:#E38DDD"/>
					<stop  offset="1" style="stop-color:#9571F6"/>
				</linearGradient>
				
					<use xlink:href="#SVGID_1_"  style="overflow:visible;fill:url(#SVGID_00000067219864976101175740000007761568647066633144_);"/>
				<clipPath id="SVGID_00000038405634352409343770000004973024868145597375_">
					<use xlink:href="#SVGID_1_"  style="overflow:visible;"/>
				</clipPath>
				<g style="clip-path:url(#SVGID_00000038405634352409343770000004973024868145597375_);">
					<path style="opacity:0.7;fill:#FFFFFF;" d="M1856.406,2489.005c-0.844,0-1.622-0.548-1.877-1.396
						c-0.311-1.037,0.276-2.131,1.313-2.442c99.743-29.978,188.829-79.501,264.787-147.193
						c71.945-64.116,146.341-130.415,166.044-230.35c14.897-75.547-10.369-124.386-42.358-186.217
						c-31.167-60.246-69.957-135.224-79.735-259.153c-5.582-70.768-12.529-158.836,32.163-251.849
						c26.042-54.195,56.177-80.983,82.763-104.617c27.806-24.719,49.77-44.242,56.721-86.705
						c11.348-69.317-14.67-122.184-44.796-183.397c-18.616-37.829-37.867-76.947-51.46-125.148
						c-38.266-135.679-1.121-296.331,110.405-477.494c0.568-0.921,1.774-1.21,2.695-0.64c0.922,0.566,1.21,1.775,0.642,2.697
						c-110.926,180.19-147.926,339.792-109.97,474.373c13.498,47.856,32.668,86.81,51.207,124.48
						c30.423,61.819,56.697,115.208,45.145,185.762c-7.174,43.836-30.72,64.766-57.984,89.002
						c-26.31,23.389-56.132,49.9-81.832,103.384c-44.235,92.062-37.335,179.546-31.79,249.84
						c9.716,123.142,48.303,197.729,79.309,257.663c32.34,62.512,57.883,111.886,42.722,188.779
						c-19.96,101.225-94.854,167.969-167.283,232.516c-76.388,68.076-165.972,117.878-266.266,148.021
						C1856.782,2488.978,1856.592,2489.005,1856.406,2489.005z"/>
					<path style="opacity:0.7;fill:#FFFFFF;" d="M2180.575,1458.275c-0.623,0-1.237-0.298-1.617-0.851
						c-117.217-170.445-157.285-311.964-170.257-400.67c-14.078-96.27-0.159-153.029-0.015-153.59
						c0.265-1.049,1.326-1.684,2.38-1.419c1.049,0.265,1.684,1.33,1.42,2.38c-0.142,0.556-13.884,56.748,0.133,152.331
						c12.941,88.241,52.865,229.047,169.569,398.746c0.613,0.892,0.387,2.112-0.505,2.726
						C2181.345,1458.161,2180.958,1458.275,2180.575,1458.275z"/>
					<path style="opacity:0.7;fill:#FFFFFF;" d="M2182.072,1763.492c-0.732,0-1.434-0.412-1.77-1.116
						c-0.467-0.977-0.055-2.148,0.923-2.613c98.974-47.31,180.352-108.457,241.875-181.742
						c49.205-58.612,85.9-125.086,109.064-197.574c39.46-123.484,25.733-222.943,25.59-223.934c-0.154-1.071,0.589-2.066,1.66-2.221
						c1.099-0.147,2.066,0.589,2.221,1.66c0.144,0.998,14.002,101.201-25.681,225.513
						c-23.305,73.005-60.238,139.953-109.774,198.982c-61.895,73.758-143.74,135.279-243.265,182.851
						C2182.644,1763.431,2182.354,1763.492,2182.072,1763.492z"/>
					<path style="opacity:0.7;fill:#FFFFFF;" d="M2202.233,2272.083c-0.333,0-0.671-0.086-0.98-0.265
						c-205.288-118.771-291.915-264.919-328.437-366.607c-39.604-110.272-30.46-193.622-30.365-194.45
						c0.127-1.075,1.071-1.835,2.175-1.72c1.075,0.127,1.845,1.1,1.72,2.175c-0.096,0.821-9.123,83.427,30.234,192.878
						c36.322,101.011,122.476,246.212,326.637,364.333c0.936,0.541,1.256,1.74,0.714,2.678
						C2203.568,2271.732,2202.909,2272.083,2202.233,2272.083z"/>
					<path style="opacity:0.7;fill:#FFFFFF;" d="M2239.955,887.823c-0.635,0-1.256-0.308-1.634-0.876
						c-0.599-0.902-0.354-2.119,0.548-2.718c157.126-104.462,206.565-241.288,220.369-337.677
						c14.973-104.536-7.545-185.423-7.775-186.227c-0.296-1.04,0.308-2.125,1.349-2.423c1.039-0.289,2.124,0.306,2.423,1.349
						c0.231,0.811,22.958,82.367,7.908,187.696c-13.895,97.232-63.705,235.24-222.104,340.548
						C2240.705,887.717,2240.328,887.823,2239.955,887.823z"/>
				</g>
			</g>
		</g>
		<g>
			<g>
				<g>
					<defs>
						<path id="SVGID_00000111151081206087892970000014721068374344194691_" d="M2397.269,2773.145
							c-23.415,1.42-75.605-16.132-87.323-26.317c-77.985-67.777-232.237-185.191-246.427-293.49
							c-2.423-18.496,76.066-51.121,84.307-70.101c44.993-32.947,62.645-41.585,90.033-93.92
							c80.854-154.506-210.292-359.835,55.429-502.459c194.637-104.47,383.167-66.616,299.371-383.776
							c-83.796-317.161,58.973-951.661,441.292-792.415c219.416,91.392,73.999,402.573,212.814,585
							c131.91,173.353,80.884,346.622-100.634,500.556c-181.518,153.933-55.876,221.512,38.123,392.254
							c112.913,205.098-216.093,308.244-372.048,342.907C2686.618,2459.295,2385.661,2615.101,2397.269,2773.145z"/>
					</defs>
					
						<linearGradient id="SVGID_00000110453922370722388780000005684056408741786787_" gradientUnits="userSpaceOnUse" x1="2503.7776" y1="708.5938" x2="3117.5515" y2="4632.373">
						<stop  offset="0" style="stop-color:#FFC444"/>
						<stop  offset="0.9964" style="stop-color:#F36F56"/>
					</linearGradient>
					
						<use xlink:href="#SVGID_00000111151081206087892970000014721068374344194691_"  style="overflow:visible;fill:url(#SVGID_00000110453922370722388780000005684056408741786787_);"/>
					<clipPath id="SVGID_00000093157132872931388510000016347084934916117921_">
						<use xlink:href="#SVGID_00000111151081206087892970000014721068374344194691_"  style="overflow:visible;"/>
					</clipPath>
					<g style="clip-path:url(#SVGID_00000093157132872931388510000016347084934916117921_);">
						<g>
							<path style="fill:#FCFDFE;" d="M2191.355,2608.763l-2.988-3.993c615.082-460.432,890.336-1235.9,736.303-2074.374
								l4.908-0.904c72.999,397.377,48.177,795.763-71.784,1152.087C2731.68,2056.188,2501.229,2376.802,2191.355,2608.763z"/>
							<path style="fill:#FCFDFE;" d="M3240.964,2168.338c-208.433-26.805-536.794,34.227-731.969,136.057l-2.306-4.423
								c195.943-102.228,525.621-163.497,734.91-136.582L3240.964,2168.338z"/>
							<path style="fill:#FCFDFE;" d="M2311.063,2516.996l-3.978-3.011c69.013-91.275,89.232-213.934,60.092-364.567
								c-21.365-110.451-68.278-233.092-139.438-364.522l4.388-2.374c71.4,131.876,118.487,254.998,139.947,365.946
								C2401.496,2300.551,2380.969,2424.541,2311.063,2516.996z"/>
							<path style="fill:#FCFDFE;" d="M2872.857,1630.342l-4.129-2.801c121.238-178.74,332.983-260.874,489.268-298.305l1.161,4.854
								C3203.73,1371.313,2993.195,1452.926,2872.857,1630.342z"/>
							<path style="fill:#FCFDFE;" d="M2965.292,1144.655l-4.955,0.58c-28.344-241.654-205.69-425.437-308.879-513.479l3.238-3.797
								C2758.442,716.479,2936.75,901.308,2965.292,1144.655z"/>
						</g>
					</g>
				</g>
			</g>
		</g>
		<g>
			
				<linearGradient id="SVGID_00000056413562086561941580000008597285557850666911_" gradientUnits="userSpaceOnUse" x1="2117.8091" y1="1975.6499" x2="1326.6322" y2="2210.1543">
				<stop  offset="0" style="stop-color:#D8DEE8"/>
				<stop  offset="1" style="stop-color:#A2A7AE"/>
			</linearGradient>
			<path style="opacity:0.54;fill:url(#SVGID_00000056413562086561941580000008597285557850666911_);" d="M800.585,3319.713
				c-46.58,4.262-84.679-41.349-84.679-101.699V1109.275c0-60.35,38.099-107.368,84.679-104.824l1996.764,151.953
				c35.339,1.93,73.219,3.55,73.219,55.737v1823.525c0,52.188-28.618,97.263-63.957,100.496L800.585,3319.713z"/>
			
				<linearGradient id="SVGID_00000119110450605249118570000010196042462618322588_" gradientUnits="userSpaceOnUse" x1="2420.8862" y1="1118.1755" x2="1485.1404" y2="2579.6233">
				<stop  offset="0" style="stop-color:#FFFFFF"/>
				<stop  offset="0.9964" style="stop-color:#EBEFF2"/>
			</linearGradient>
			<path style="fill:url(#SVGID_00000119110450605249118570000010196042462618322588_);" d="M816.856,3319.713
				c-46.58,4.262-84.679-41.349-84.679-101.699V1109.275c0-60.35,38.098-107.368,84.679-104.824l2006.026,109.552
				c35.339,1.93,63.957,45.95,63.957,98.138v1823.525c0,52.188-28.617,97.263-63.957,100.496L816.856,3319.713z"/>
			
				<linearGradient id="SVGID_00000009550446905360486320000005036217190738073984_" gradientUnits="userSpaceOnUse" x1="2939.3408" y1="813.2657" x2="222.8518" y2="3867.5591">
				<stop  offset="0" style="stop-color:#444B8C"/>
				<stop  offset="0.9964" style="stop-color:#26264F"/>
			</linearGradient>
			<path style="fill:url(#SVGID_00000009550446905360486320000005036217190738073984_);" d="M2822.882,1176.917L816.856,1076.484
				c-15.754-0.789-28.548,15.091-28.548,35.471v2101.307c0,20.379,12.794,35.788,28.548,34.418l2006.026-174.432
				c11.996-1.043,21.705-16.268,21.705-34.008V1210.124C2844.587,1192.384,2834.878,1177.518,2822.882,1176.917z"/>
			<g style="opacity:0.53;">
				<path style="fill:#FFFFFF;" d="M1524.205,3034.372c-7.742,0-14.019-6.277-14.019-14.019V1277.719
					c0-7.742,6.277-14.019,14.019-14.019c7.742,0,14.019,6.277,14.019,14.019v1742.634
					C1538.224,3028.094,1531.947,3034.372,1524.205,3034.372z"/>
				<path style="fill:#FFFFFF;" d="M2234.051,2980.423c-7.742,0-14.02-6.277-14.02-14.019V1305.482
					c0-7.742,6.277-14.019,14.02-14.019s14.019,6.277,14.019,14.019v1660.922C2248.07,2974.146,2241.793,2980.423,2234.051,2980.423
					z"/>
			</g>
		</g>
		<g>
			
				<linearGradient id="SVGID_00000080179235337695979230000010008447085293278869_" gradientUnits="userSpaceOnUse" x1="1101.8796" y1="1935.001" x2="1355.0845" y2="2539.033">
				<stop  offset="0" style="stop-color:#444B8C"/>
				<stop  offset="0.9964" style="stop-color:#26264F"/>
			</linearGradient>
			<path style="opacity:0.3;fill:url(#SVGID_00000080179235337695979230000010008447085293278869_);" d="M893.075,1904.444v286.548
				c0,42.803,5.698,85.416,16.943,126.715l4.3,15.793c1.597,5.865,6.922,9.934,13.001,9.934h546.091
				c7.411,0,12.905-6.87,11.284-14.102c-6.548-29.198-20.693-96.808-20.693-135.991l-31.368-248.011
				c0-12.101,21.75-37.91,9.655-38.274l-535.334-16.082C899.357,1890.748,893.075,1896.844,893.075,1904.444z"/>
			
				<linearGradient id="SVGID_00000053542767082475672480000004512329059229104047_" gradientUnits="userSpaceOnUse" x1="1106.818" y1="1877.0763" x2="1360.0228" y2="2481.1082">
				<stop  offset="0" style="stop-color:#AA80F9"/>
				<stop  offset="0.9964" style="stop-color:#6165D7"/>
			</linearGradient>
			<path style="fill:url(#SVGID_00000053542767082475672480000004512329059229104047_);" d="M893.075,1848.59v286.548
				c0,42.803,5.698,85.416,16.943,126.715l4.3,15.793c1.597,5.865,6.922,9.934,13.001,9.934h546.091
				c7.411,0,12.905-6.87,11.284-14.101c-6.548-29.198-20.693-96.809-20.693-135.991v-263.91c0-12.101-9.617-22.011-21.713-22.375
				l-535.334-16.082C899.357,1834.893,893.075,1840.99,893.075,1848.59z"/>
			<path style="fill:#FFFFFF;" d="M1413.653,1942.503c-0.069,0-0.139-0.001-0.208-0.003l-469.142-11.792
				c-4.492-0.112-8.041-3.845-7.928-8.337c0.113-4.492,3.877-8.07,8.337-7.928l469.142,11.792c4.492,0.112,8.041,3.845,7.928,8.337
				C1421.672,1938.995,1418.052,1942.503,1413.653,1942.503z"/>
			<g style="opacity:0.19;">
				
					<linearGradient id="SVGID_00000159459041642819633240000008614564477925672096_" gradientUnits="userSpaceOnUse" x1="1088.0402" y1="1996.0118" x2="1146.2356" y2="1996.0118">
					<stop  offset="0" style="stop-color:#FFFFFF"/>
					<stop  offset="0.9964" style="stop-color:#EBEFF2"/>
				</linearGradient>
				<polygon style="fill:url(#SVGID_00000159459041642819633240000008614564477925672096_);" points="1146.236,2017.049 
					1088.04,2015.35 1088.04,1974.974 1146.236,1977.052 				"/>
				
					<linearGradient id="SVGID_00000044857866084830053470000010481641458540765059_" gradientUnits="userSpaceOnUse" x1="1159.931" y1="1998.325" x2="1216.7927" y2="1998.325">
					<stop  offset="0" style="stop-color:#FFFFFF"/>
					<stop  offset="0.9964" style="stop-color:#EBEFF2"/>
				</linearGradient>
				<polygon style="fill:url(#SVGID_00000044857866084830053470000010481641458540765059_);" points="1216.793,2019.109 
					1159.931,2017.449 1159.931,1977.541 1216.793,1979.571 				"/>
				
					<linearGradient id="SVGID_00000165212461791237666780000013201825309296789439_" gradientUnits="userSpaceOnUse" x1="1230.1761" y1="2000.5853" x2="1285.7491" y2="2000.5853">
					<stop  offset="0" style="stop-color:#FFFFFF"/>
					<stop  offset="0.9964" style="stop-color:#EBEFF2"/>
				</linearGradient>
				<polygon style="fill:url(#SVGID_00000165212461791237666780000013201825309296789439_);" points="1285.749,2021.122 
					1230.176,2019.5 1230.176,1980.048 1285.749,1982.032 				"/>
				
					<linearGradient id="SVGID_00000177447943666366102240000014286218458630582717_" gradientUnits="userSpaceOnUse" x1="1298.8311" y1="2002.7946" x2="1353.1591" y2="2002.7946">
					<stop  offset="0" style="stop-color:#FFFFFF"/>
					<stop  offset="0.9964" style="stop-color:#EBEFF2"/>
				</linearGradient>
				<polygon style="fill:url(#SVGID_00000177447943666366102240000014286218458630582717_);" points="1353.159,2023.09 
					1298.831,2021.504 1298.831,1982.499 1353.159,1984.438 				"/>
				
					<linearGradient id="SVGID_00000144308708435360210620000001665495805335820428_" gradientUnits="userSpaceOnUse" x1="1365.9493" y1="2004.9547" x2="1419.0735" y2="2004.9547">
					<stop  offset="0" style="stop-color:#FFFFFF"/>
					<stop  offset="0.9964" style="stop-color:#EBEFF2"/>
				</linearGradient>
				<polygon style="fill:url(#SVGID_00000144308708435360210620000001665495805335820428_);" points="1419.073,2025.015 
					1365.949,2023.464 1365.949,1984.895 1419.073,1986.792 				"/>
				
					<linearGradient id="SVGID_00000179647300656264503610000016444951021090795922_" gradientUnits="userSpaceOnUse" x1="939.0838" y1="2052.7876" x2="1000.0914" y2="2052.7876">
					<stop  offset="0" style="stop-color:#FFFFFF"/>
					<stop  offset="0.9964" style="stop-color:#EBEFF2"/>
				</linearGradient>
				<polygon style="fill:url(#SVGID_00000179647300656264503610000016444951021090795922_);" points="1000.091,2074.054 
					939.084,2072.866 939.084,2031.522 1000.091,2033.106 				"/>
				
					<linearGradient id="SVGID_00000183214656811657390790000014424622832889671047_" gradientUnits="userSpaceOnUse" x1="1014.4449" y1="2054.4856" x2="1074.0216" y2="2054.4856">
					<stop  offset="0" style="stop-color:#FFFFFF"/>
					<stop  offset="0.9964" style="stop-color:#EBEFF2"/>
				</linearGradient>
				<polygon style="fill:url(#SVGID_00000183214656811657390790000014424622832889671047_);" points="1074.022,2075.493 
					1014.445,2074.333 1014.445,2033.479 1074.022,2035.026 				"/>
				
					<linearGradient id="SVGID_00000132071279471767143300000002200841830091116676_" gradientUnits="userSpaceOnUse" x1="1088.0402" y1="2056.1436" x2="1146.2356" y2="2056.1436">
					<stop  offset="0" style="stop-color:#FFFFFF"/>
					<stop  offset="0.9964" style="stop-color:#EBEFF2"/>
				</linearGradient>
				<polygon style="fill:url(#SVGID_00000132071279471767143300000002200841830091116676_);" points="1146.236,2076.898 
					1088.04,2075.765 1088.04,2035.389 1146.236,2036.901 				"/>
				
					<linearGradient id="SVGID_00000136387130865794903310000012409183923228629176_" gradientUnits="userSpaceOnUse" x1="1159.931" y1="2057.7637" x2="1216.7927" y2="2057.7637">
					<stop  offset="0" style="stop-color:#FFFFFF"/>
					<stop  offset="0.9964" style="stop-color:#EBEFF2"/>
				</linearGradient>
				<polygon style="fill:url(#SVGID_00000136387130865794903310000012409183923228629176_);" points="1216.793,2078.271 
					1159.931,2077.165 1159.931,2037.256 1216.793,2038.733 				"/>
				
					<linearGradient id="SVGID_00000110448697076732514950000017346847895736674958_" gradientUnits="userSpaceOnUse" x1="1230.1761" y1="2059.3467" x2="1285.7491" y2="2059.3467">
					<stop  offset="0" style="stop-color:#FFFFFF"/>
					<stop  offset="0.9964" style="stop-color:#EBEFF2"/>
				</linearGradient>
				<polygon style="fill:url(#SVGID_00000110448697076732514950000017346847895736674958_);" points="1285.749,2079.613 
					1230.176,2078.531 1230.176,2039.08 1285.749,2040.523 				"/>
				
					<linearGradient id="SVGID_00000078746305878982325800000014908971138345464193_" gradientUnits="userSpaceOnUse" x1="1298.8311" y1="2060.894" x2="1353.1591" y2="2060.894">
					<stop  offset="0" style="stop-color:#FFFFFF"/>
					<stop  offset="0.9964" style="stop-color:#EBEFF2"/>
				</linearGradient>
				<polygon style="fill:url(#SVGID_00000078746305878982325800000014908971138345464193_);" points="1353.159,2080.925 
					1298.831,2079.868 1298.831,2040.863 1353.159,2042.273 				"/>
				
					<linearGradient id="SVGID_00000152966858157033306730000000307333070720755110_" gradientUnits="userSpaceOnUse" x1="1365.9493" y1="2062.407" x2="1419.0735" y2="2062.407">
					<stop  offset="0" style="stop-color:#FFFFFF"/>
					<stop  offset="0.9964" style="stop-color:#EBEFF2"/>
				</linearGradient>
				<polygon style="fill:url(#SVGID_00000152966858157033306730000000307333070720755110_);" points="1419.073,2082.208 
					1365.949,2081.174 1365.949,2042.606 1419.073,2043.985 				"/>
				
					<linearGradient id="SVGID_00000121274352805092348820000017031330925490495903_" gradientUnits="userSpaceOnUse" x1="939.0838" y1="2114.3555" x2="1000.0914" y2="2114.3555">
					<stop  offset="0" style="stop-color:#FFFFFF"/>
					<stop  offset="0.9964" style="stop-color:#EBEFF2"/>
				</linearGradient>
				<polygon style="fill:url(#SVGID_00000121274352805092348820000017031330925490495903_);" points="1000.091,2135.325 
					939.084,2134.731 939.084,2093.386 1000.091,2094.377 				"/>
				
					<linearGradient id="SVGID_00000119075647277663999140000010616529603456391602_" gradientUnits="userSpaceOnUse" x1="1014.4449" y1="2115.3269" x2="1074.0216" y2="2115.3269">
					<stop  offset="0" style="stop-color:#FFFFFF"/>
					<stop  offset="0.9964" style="stop-color:#EBEFF2"/>
				</linearGradient>
				<polygon style="fill:url(#SVGID_00000119075647277663999140000010616529603456391602_);" points="1074.022,2136.044 
					1014.445,2135.464 1014.445,2094.61 1074.022,2095.577 				"/>
				
					<linearGradient id="SVGID_00000038397637070080236600000013153045089996822957_" gradientUnits="userSpaceOnUse" x1="1088.0402" y1="2116.2756" x2="1146.2356" y2="2116.2756">
					<stop  offset="0" style="stop-color:#FFFFFF"/>
					<stop  offset="0.9964" style="stop-color:#EBEFF2"/>
				</linearGradient>
				<polygon style="fill:url(#SVGID_00000038397637070080236600000013153045089996822957_);" points="1146.236,2136.747 
					1088.04,2136.18 1088.04,2095.804 1146.236,2096.749 				"/>
				
					<linearGradient id="SVGID_00000157282228246866375630000012411794257362976177_" gradientUnits="userSpaceOnUse" x1="1159.931" y1="2117.2024" x2="1216.7927" y2="2117.2024">
					<stop  offset="0" style="stop-color:#FFFFFF"/>
					<stop  offset="0.9964" style="stop-color:#EBEFF2"/>
				</linearGradient>
				<polygon style="fill:url(#SVGID_00000157282228246866375630000012411794257362976177_);" points="1216.793,2137.433 
					1159.931,2136.88 1159.931,2096.972 1216.793,2097.895 				"/>
				
					<linearGradient id="SVGID_00000036941808893827118350000011281712766002048433_" gradientUnits="userSpaceOnUse" x1="1230.1761" y1="2118.1082" x2="1285.7491" y2="2118.1082">
					<stop  offset="0" style="stop-color:#FFFFFF"/>
					<stop  offset="0.9964" style="stop-color:#EBEFF2"/>
				</linearGradient>
				<polygon style="fill:url(#SVGID_00000036941808893827118350000011281712766002048433_);" points="1285.749,2138.104 
					1230.176,2137.563 1230.176,2098.112 1285.749,2099.014 				"/>
				
					<linearGradient id="SVGID_00000127007846989768021420000017338258670976821134_" gradientUnits="userSpaceOnUse" x1="1298.8311" y1="2118.9934" x2="1353.1591" y2="2118.9934">
					<stop  offset="0" style="stop-color:#FFFFFF"/>
					<stop  offset="0.9964" style="stop-color:#EBEFF2"/>
				</linearGradient>
				<polygon style="fill:url(#SVGID_00000127007846989768021420000017338258670976821134_);" points="1353.159,2138.76 
					1298.831,2138.232 1298.831,2099.227 1353.159,2100.109 				"/>
				
					<linearGradient id="SVGID_00000107588463105128303390000016162587539295810176_" gradientUnits="userSpaceOnUse" x1="1365.9493" y1="2119.8589" x2="1419.0735" y2="2119.8589">
					<stop  offset="0" style="stop-color:#FFFFFF"/>
					<stop  offset="0.9964" style="stop-color:#EBEFF2"/>
				</linearGradient>
				<polygon style="fill:url(#SVGID_00000107588463105128303390000016162587539295810176_);" points="1419.073,2139.402 
					1365.949,2138.885 1365.949,2100.316 1419.073,2101.179 				"/>
				
					<linearGradient id="SVGID_00000069397229178126704410000006414365069597786768_" gradientUnits="userSpaceOnUse" x1="939.0838" y1="2175.9229" x2="1000.0914" y2="2175.9229">
					<stop  offset="0" style="stop-color:#FFFFFF"/>
					<stop  offset="0.9964" style="stop-color:#EBEFF2"/>
				</linearGradient>
				<polygon style="fill:url(#SVGID_00000069397229178126704410000006414365069597786768_);" points="1000.091,2196.595 
					939.084,2196.595 939.084,2155.25 1000.091,2155.647 				"/>
				
					<linearGradient id="SVGID_00000125582855964019384870000009281726559608883883_" gradientUnits="userSpaceOnUse" x1="1014.4449" y1="2176.168" x2="1074.0216" y2="2176.168">
					<stop  offset="0" style="stop-color:#FFFFFF"/>
					<stop  offset="0.9964" style="stop-color:#EBEFF2"/>
				</linearGradient>
				<polygon style="fill:url(#SVGID_00000125582855964019384870000009281726559608883883_);" points="1074.022,2196.595 
					1014.445,2196.595 1014.445,2155.741 1074.022,2156.128 				"/>
				
					<linearGradient id="SVGID_00000010995112545505545560000010976789660651026069_" gradientUnits="userSpaceOnUse" x1="1088.0402" y1="2176.4075" x2="1146.2356" y2="2176.4075">
					<stop  offset="0" style="stop-color:#FFFFFF"/>
					<stop  offset="0.9964" style="stop-color:#EBEFF2"/>
				</linearGradient>
				<polygon style="fill:url(#SVGID_00000010995112545505545560000010976789660651026069_);" points="1146.236,2196.595 
					1088.04,2196.595 1088.04,2156.219 1146.236,2156.598 				"/>
				
					<linearGradient id="SVGID_00000031921669480114867870000018350494760038544824_" gradientUnits="userSpaceOnUse" x1="1159.931" y1="2176.6411" x2="1216.7927" y2="2176.6411">
					<stop  offset="0" style="stop-color:#FFFFFF"/>
					<stop  offset="0.9964" style="stop-color:#EBEFF2"/>
				</linearGradient>
				<polygon style="fill:url(#SVGID_00000031921669480114867870000018350494760038544824_);" points="1216.793,2196.595 
					1159.931,2196.595 1159.931,2156.687 1216.793,2157.057 				"/>
				
					<linearGradient id="SVGID_00000022520866516154676850000002713496623017461420_" gradientUnits="userSpaceOnUse" x1="1230.1761" y1="2176.8694" x2="1285.7491" y2="2176.8694">
					<stop  offset="0" style="stop-color:#FFFFFF"/>
					<stop  offset="0.9964" style="stop-color:#EBEFF2"/>
				</linearGradient>
				<polygon style="fill:url(#SVGID_00000022520866516154676850000002713496623017461420_);" points="1285.749,2196.595 
					1230.176,2196.595 1230.176,2157.144 1285.749,2157.505 				"/>
			</g>
		</g>
		<g>
			
				<linearGradient id="SVGID_00000016768214833917031490000003799641800629003695_" gradientUnits="userSpaceOnUse" x1="1257.5696" y1="1488.6255" x2="1591.1215" y2="1346.2559">
				<stop  offset="0.0036" style="stop-color:#E38DDD"/>
				<stop  offset="1" style="stop-color:#9571F6"/>
			</linearGradient>
			<path style="fill:url(#SVGID_00000016768214833917031490000003799641800629003695_);" d="M916.577,1328.538
				c1.005,178.93,10.033,339.419,70.387,381.921l474.513-3.234c-31.816-114.175-71.648-234.159-63.396-363.563L916.577,1328.538z"/>
		</g>
		<g>
			
				<linearGradient id="SVGID_00000008836178038853509630000000233099647333902215_" gradientUnits="userSpaceOnUse" x1="1916.0654" y1="2056.5012" x2="2178.9697" y2="3925.0085">
				<stop  offset="0" style="stop-color:#444B8C"/>
				<stop  offset="0.9964" style="stop-color:#26264F"/>
			</linearGradient>
			<path style="opacity:0.3;fill:url(#SVGID_00000008836178038853509630000000233099647333902215_);" d="M1549.864,1403.208v817.839
				c0,19.103,16.682,33.919,35.652,31.664l696.398-82.8c23.198-2.758,38.638-25.318,32.78-47.933
				c-19.407-74.928-56.552-232.612-56.722-342.435c-0.004-2.887-1.563-5.522-4.1-6.901l-692.364-376.357
				C1556.257,1393.43,1549.864,1397.231,1549.864,1403.208z"/>
			
				<linearGradient id="SVGID_00000178175669482675148820000009049037893905876635_" gradientUnits="userSpaceOnUse" x1="2108.5618" y1="1345.2101" x2="2054.8721" y2="3235.0737">
				<stop  offset="0" style="stop-color:#FFC444"/>
				<stop  offset="0.9964" style="stop-color:#F36F56"/>
			</linearGradient>
			<path style="fill:url(#SVGID_00000178175669482675148820000009049037893905876635_);" d="M1563.547,1388.553l841.234-86.223
				c6.599-0.677,12.578,3.891,13.628,10.44c11.163,69.661,75.333,435.922,224.553,670.404c4.677,7.349,0.585,17.088-7.933,18.913
				l-752.69,161.313c-3.797,0.814-7.732-0.168-10.698-2.673c-31.39-26.514-206.51-195.964-319.095-757.265
				C1551.096,1396.231,1556.209,1389.305,1563.547,1388.553z"/>
			<g>
				
					<linearGradient id="SVGID_00000178912250766998980670000008542879541047692434_" gradientUnits="userSpaceOnUse" x1="2015.083" y1="2443.7686" x2="2050.4373" y2="2695.0381" gradientTransform="matrix(0.9865 -0.1639 0.1639 0.9865 197.12 -7.8751)">
					<stop  offset="0" style="stop-color:#FFC444"/>
					<stop  offset="0.9964" style="stop-color:#F36F56"/>
				</linearGradient>
				<path style="fill:url(#SVGID_00000178912250766998980670000008542879541047692434_);" d="M2570.219,2095.548l-9.126-54.934
					c0,0,16.154-26.768-7.723-46.49c-23.878-19.722,34.997-10.299,39.62,33.907l-14.77,26.583l25.165,35.424L2570.219,2095.548z"/>
				
					<linearGradient id="SVGID_00000080200347891971063670000016276571196731725189_" gradientUnits="userSpaceOnUse" x1="114.1135" y1="2842.594" x2="146.3337" y2="3071.5886" gradientTransform="matrix(1.2089 -0.6121 0.4517 0.8922 546.2661 -192.3588)">
					<stop  offset="0" style="stop-color:#FFC444"/>
					<stop  offset="0.9964" style="stop-color:#F36F56"/>
				</linearGradient>
				<path style="fill:url(#SVGID_00000080200347891971063670000016276571196731725189_);" d="M1935.139,2238.789l-22.586-55.619
					c0,0,4.819-18.703-7.331-29.155c-12.151-10.452-6.486-7.406-6.578,3.331c-0.093,10.737-16.081,0.73-29.517-8.957
					c-13.435-9.688-6.701,12.252,1.017,23.386c7.718,11.134,11.937,17.949,26.049,21.78c14.112,3.831,14.806,45.233,14.806,45.233
					H1935.139z"/>
				<path style="fill:#26264F;" d="M2370.174,3271.26c2.205-8.042,21.372-1.83,33.895,2.4c12.523,4.23,16.96,10.694,17.836,15.965
					c0.877,5.271-3.404,16.773-14.074,9.031C2399.072,3292.302,2368.223,3278.367,2370.174,3271.26z"/>
				
					<linearGradient id="SVGID_00000142878645212267959630000012921543287986448316_" gradientUnits="userSpaceOnUse" x1="3287.2751" y1="2528.6008" x2="3330.2065" y2="2656.3726" gradientTransform="matrix(0.9736 0.2282 -0.2282 0.9736 -219.7599 -26.8234)">
					<stop  offset="0" style="stop-color:#FFC444"/>
					<stop  offset="0.9964" style="stop-color:#F36F56"/>
				</linearGradient>
				<path style="fill:url(#SVGID_00000142878645212267959630000012921543287986448316_);" d="M2401.091,3245.351l1.747,33.563
					c0,0,7.65,8.4,11.376,5.986l5.094-37.016L2401.091,3245.351z"/>
				
					<linearGradient id="SVGID_00000070800427572667640530000011014301900285740455_" gradientUnits="userSpaceOnUse" x1="3232.2883" y1="2547.5444" x2="3274.9021" y2="2674.3713" gradientTransform="matrix(0.9736 0.2282 -0.2282 0.9736 -219.7599 -26.8234)">
					<stop  offset="0" style="stop-color:#FFC444"/>
					<stop  offset="0.9964" style="stop-color:#F36F56"/>
				</linearGradient>
				<polygon style="fill:url(#SVGID_00000070800427572667640530000011014301900285740455_);" points="2341.071,3211.668 
					2368.163,3231.903 2359.519,3245.985 2331.141,3231.043 				"/>
				<path style="fill:#26264F;" d="M2325.466,3270.525c0,0,18.889,9.914,30.567,0.116c7.51-6.299,15.31-18.16,19.922-25.826
					c2.505-4.162,1.36-9.532-2.623-12.313c-5.783-4.038-13.816-8.815-18.002-7.601c-7.003,2.031-6.624,26.521-10.743,31.915
					C2340.469,3262.211,2326.415,3262.997,2325.466,3270.525z"/>
				
					<linearGradient id="SVGID_00000156583544502234699370000000006734464752811683_" gradientUnits="userSpaceOnUse" x1="2634.8909" y1="2992.082" x2="2251.051" y2="3000.3074">
					<stop  offset="0" style="stop-color:#311944"/>
					<stop  offset="1" style="stop-color:#893976"/>
				</linearGradient>
				<path style="fill:url(#SVGID_00000156583544502234699370000000006734464752811683_);" d="M2402.692,2729.887
					c-12.537,73.968-22.289,160.778-23.993,258.028c-1.776,101.372,5.583,191.832,16.278,268.508
					c2.327,1.869,6.572,4.778,12.61,6.378c7.068,1.872,13.01,0.998,16.038,0.335c13.742-36.422,23.718-67.547,30.651-90.774
					c18.312-61.341,27.472-92.808,27.675-131.813c0.191-36.601-6.834-35.388-6.135-75.728c0.623-35.874,6.618-62.174,15.616-100.633
					c6.178-26.408,15.745-61.788,30.763-102.912C2482.36,2750.814,2442.526,2740.35,2402.692,2729.887z"/>
				
					<linearGradient id="SVGID_00000126294174892508699330000000684554128381729692_" gradientUnits="userSpaceOnUse" x1="3405.7371" y1="2463.0896" x2="3204.1602" y2="2235.8083" gradientTransform="matrix(0.9736 0.2282 -0.2282 0.9736 -219.7599 -26.8234)">
					<stop  offset="0" style="stop-color:#311944"/>
					<stop  offset="1" style="stop-color:#893976"/>
				</linearGradient>
				<path style="opacity:0.3;fill:url(#SVGID_00000126294174892508699330000000684554128381729692_);" d="M2404.946,3231.665
					c-1.96-27.605,16.547-35.666,22.363-68.749c7.108-40.419-17.181-47.369-14.435-94.045c2.208-37.509,18.129-37.063,24.385-81.822
					c6.649-47.569-9.483-61.31,0.908-88.366c5.778-15.043,19.811-34.118,56.999-49.76c6.122-24.209,14.723-53.951,27.029-87.647
					c-39.834-10.462-79.668-20.926-119.502-31.389c-12.537,73.968-22.289,160.778-23.993,258.028
					c-1.776,101.372,5.583,191.832,16.278,268.508c2.327,1.869,6.572,4.778,12.61,6.378c3.204,0.849,6.124,1.089,8.698,1.084
					C2410.427,3254.76,2405.822,3243.984,2404.946,3231.665z"/>
				
					<linearGradient id="SVGID_00000117668744379957343790000016035679995125519549_" gradientUnits="userSpaceOnUse" x1="2754.3572" y1="3211.8433" x2="2365.0334" y2="2984.2805">
					<stop  offset="0" style="stop-color:#311944"/>
					<stop  offset="1" style="stop-color:#893976"/>
				</linearGradient>
				<path style="fill:url(#SVGID_00000117668744379957343790000016035679995125519549_);" d="M2307.904,2694.127
					c-5.576,17.227-14.672,43.156-28.308,73.659c-30.746,68.783-52.07,88.125-67.305,134.239
					c-17.764,53.774-12.898,100.515-11.047,118.295c12.635,121.369,107.314,198.67,132.61,218.096
					c5.623-9.612,11.247-19.224,16.869-28.836c-4.886-11.188-11.84-28.982-17.024-51.611c-8.852-38.635-5.208-59.321-8.788-96.163
					c-6.458-66.468-24.375-61.468-20.842-93.712c5.6-51.1,50.392-61.765,108.814-148.281c16.741-24.791,28.169-46.285,34.804-59.581
					C2401.092,2738.197,2354.498,2716.162,2307.904,2694.127z"/>
				
					<linearGradient id="SVGID_00000153671494898358589410000017773187654996110264_" gradientUnits="userSpaceOnUse" x1="2217.0256" y1="2047.5619" x2="2402.3608" y2="2728.0278">
					<stop  offset="0" style="stop-color:#FF9085"/>
					<stop  offset="1" style="stop-color:#FB6FBB"/>
				</linearGradient>
				<path style="fill:url(#SVGID_00000153671494898358589410000017773187654996110264_);" d="M2552.026,2060.498
					c16.45-0.914,32.901-1.828,49.351-2.742c16.59,29.951,45.594,92.196,45.073,175.008
					c-0.482,76.635-26.007,132.164-33.977,148.451c-28.665,58.577-67.872,95.106-90.894,113.639
					c-0.033,91.071,1.691,148.499,4.821,182.871c0.377,4.144,3.606,38.921-1.1,83.771c-1.434,13.667-2.188,20.578-4.059,24.351
					c-25.945,52.36-174.688,10.865-214.865-6.498c-10.446-4.515-21.057-10.795-25.597-21.912
					c-5.832-14.284-0.241-27.232,2.029-38.555c5.575-27.804-10.953-48.792-44.098-102.733
					c-14.015-22.81-34.368-57.052-58.138-101.505c-27.514,8.028-92.355,22.41-155.833-7.871
					c-93.274-44.497-146.5-167.732-119.366-301.284c9.47-2.706,18.94-5.412,28.409-8.117c6.268,25.916,18.352,60.813,43.105,96.01
					c15.019,21.354,27.526,39.137,49.225,49.08c34.072,15.612,64.331-0.239,108.563-11.16c24.169-5.968,16.75-1.153,198.774-2.985
					c77.682-0.782,93.427-1.662,117.134-10.098c16.434-5.848,65.07-23.154,95.96-68.543
					C2601.123,2169.477,2555.362,2067.63,2552.026,2060.498z"/>
				
					<linearGradient id="SVGID_00000128457174967915700200000003221611973061508742_" gradientUnits="userSpaceOnUse" x1="2307.5066" y1="2308.5005" x2="2340.9888" y2="2407.2559">
					<stop  offset="0" style="stop-color:#FFC444"/>
					<stop  offset="0.9964" style="stop-color:#F36F56"/>
				</linearGradient>
				<path style="fill:url(#SVGID_00000128457174967915700200000003221611973061508742_);" d="M2316.486,2267.687
					c0,0-4.638,18.565,1.895,26.885c6.532,8.32,28.347,40.209,35.449,41.766c4.046,0.887,14.183,2.421,22.158,3.578
					c4.198,0.608,5.089,6.386,1.197,8.074c-7.932,3.443-21.919,6.906-45.939,6.646c-34.719-0.375-62.645-13.585-74.819-20.429
					c-1.729-0.972-0.91-3.595,1.068-3.446l15.624,1.175c13.382,1.007,24.381-10.399,22.891-23.736l-0.971-8.685L2316.486,2267.687z"
					/>
				<g>
					<g>
						
							<linearGradient id="SVGID_00000158013161966227343770000015263682632703292586_" gradientUnits="userSpaceOnUse" x1="2214.7905" y1="3536.1667" x2="2248.2727" y2="3634.9216" gradientTransform="matrix(1 0 0 1 514.5802 0)">
							<stop  offset="0" style="stop-color:#FFC444"/>
							<stop  offset="0.9964" style="stop-color:#F36F56"/>
						</linearGradient>
						<path style="fill:url(#SVGID_00000158013161966227343770000015263682632703292586_);" d="M2302.157,2305.06
							c-2.148-1.179-19.602-3.3-22.007-12.686c-3.267-12.74,8.184-28.248,9.61-30.743c5.972-10.447,7.474-11.858,10.252-13.628
							l3.854-2.259c0,0,0.223-0.084,0.456-0.161c2.46-0.813,10.782-0.878,12.459-0.481c5.356,1.271,10.592,23.328,8.256,54.292
							c0.196,1.186,0.385,2.382,0.565,3.588C2326.073,2306.115,2302,2306.164,2302.157,2305.06z"/>
						
							<linearGradient id="SVGID_00000079462212873004366510000017759319706552226697_" gradientUnits="userSpaceOnUse" x1="2364.5549" y1="2436.8606" x2="2333.7104" y2="2314.5115">
							<stop  offset="0" style="stop-color:#311944"/>
							<stop  offset="1" style="stop-color:#893976"/>
						</linearGradient>
						<path style="fill:url(#SVGID_00000079462212873004366510000017759319706552226697_);" d="M2285.741,2243.774
							c-0.756,3.785,9.263,11.321,13.546,14.575c0.521,0.396,2.027,1.73,3.391,3.878c0.199,0.313,0.372,0.678,0.522,1.147
							c1.967,6.1-7.817,13.006-6.021,15.757c1.303,1.998,7.903-0.484,8.641,1.23c0.696,1.614-4.813,4.8-4.025,6.732
							c0.595,1.459,3.971,0.212,6.03,2.475c1.025,1.123,0.697,1.992,1.736,5.386c0.587,1.918,1.422,4.024,2.078,5.199
							c3.192,5.714,12.545,7.986,14.406,5.771c0.519-0.618,0.098-1.155,0.659-3.253c0,0,0.521-1.947,1.933-4.175
							c2.017-3.189,6.764-5.395,11.577-8.698c8.914-6.117,11.42-11.446,12.177-13.249c0.085-0.202,0.16-0.389,0.225-0.559
							c0.129-0.305,0.24-0.612,0.334-0.919c1.883-6.145-5.921-16.82-5.921-16.82c-6.262-8.424-14.171-14.078-20.492-17.672
							c-11.562-2.275-20.977-1.988-27.497-1.267C2293.732,2239.899,2286.34,2240.777,2285.741,2243.774z"/>
						
							<linearGradient id="SVGID_00000128466374212051304970000016670205706630253962_" gradientUnits="userSpaceOnUse" x1="2361.9683" y1="2344.2021" x2="2318.7866" y2="2309.2456">
							<stop  offset="0" style="stop-color:#311944"/>
							<stop  offset="1" style="stop-color:#893976"/>
						</linearGradient>
						<path style="fill:url(#SVGID_00000128466374212051304970000016670205706630253962_);" d="M2282.137,2275.649
							c0,0,7.392,8.871,17.156-1.783l4.821,1.423c0,0-11.787,25.932-14.308,25.932c-2.521,0-9.881-1.677-9.881-1.677
							c-2.759-1.155-4.313-4.112-3.678-7.035C2277.404,2287.179,2280.432,2279.405,2282.137,2275.649z"/>
						
							<linearGradient id="SVGID_00000052797138397036223090000015439870241011283099_" gradientUnits="userSpaceOnUse" x1="2936.833" y1="4134.0244" x2="3023.074" y2="4273.0249" gradientTransform="matrix(1 0 0 1 514.5802 0)">
							<stop  offset="0" style="stop-color:#FFC444"/>
							<stop  offset="0.9964" style="stop-color:#F36F56"/>
						</linearGradient>
						<path style="fill:url(#SVGID_00000052797138397036223090000015439870241011283099_);" d="M2301.638,2276.952
							c2.427-3.182,6.495-0.05,6.425,4.136c-0.071,4.184-4.223,8.444-8.138,7.527
							C2296.008,2287.702,2298.373,2281.234,2301.638,2276.952z"/>
					</g>
				</g>
				
					<linearGradient id="SVGID_00000170236731095081641250000006473471581626345088_" gradientUnits="userSpaceOnUse" x1="2092.1685" y1="2081.5684" x2="2277.5042" y2="2762.0366">
					<stop  offset="0" style="stop-color:#FF9085"/>
					<stop  offset="1" style="stop-color:#FB6FBB"/>
				</linearGradient>
				<path style="opacity:0.3;fill:url(#SVGID_00000170236731095081641250000006473471581626345088_);" d="M2481.671,2770.628
					c-50.388,17.758-109.116-8.206-123.782-43.628c-10.841-26.186,12.324-51.165-4.059-78.125
					c-15.775-25.962-44.265-14.33-63.921-40.584c-21.421-28.613,3.788-53.959-15.219-92.33
					c-14.3-28.867-48.541-54.846-82.183-54.789c-39.989,0.067-54.925,36.881-89.286,29.424
					c-17.949-3.894-17.532-14.734-42.614-32.468c-43.527-30.777-72.716-17.885-108.563-39.57
					c-10.533-6.374-22.288-16.145-33.224-31.852c21.414,54.387,58.465,97.429,105.918,120.067
					c63.477,30.282,128.319,15.899,155.833,7.871c23.77,44.453,44.123,78.696,58.138,101.505
					c33.145,53.941,49.674,74.928,44.098,102.733c-2.27,11.323-7.861,24.271-2.029,38.555c4.54,11.117,15.151,17.397,25.597,21.912
					c40.177,17.363,188.921,58.857,214.865,6.498c1.87-3.773,2.625-10.684,4.059-24.351c0.894-8.513,1.499-16.66,1.894-24.307
					C2516.823,2750.483,2502.181,2763.401,2481.671,2770.628z"/>
			</g>
			<g>
				
					<linearGradient id="SVGID_00000048485101252507128140000011244794122211537832_" gradientUnits="userSpaceOnUse" x1="2133.7881" y1="1923.4822" x2="2327.3933" y2="3299.4688">
					<stop  offset="0" style="stop-color:#FFFFFF"/>
					<stop  offset="0.9964" style="stop-color:#EBEFF2"/>
				</linearGradient>
				<path style="opacity:0.19;fill:url(#SVGID_00000048485101252507128140000011244794122211537832_);" d="M2374.661,1765.906
					c-94.98-23.799-119.43-122.759-206.373-122.029c-85.992,0.722-104.564,97.885-181.249,93.317
					c-87.228-5.196-104.204-133.353-217.14-163.304c-38.927-10.323-76.823-5.676-109.324,3.992
					c63.409,297.417,209.372,504.154,209.372,504.154l690.749-142.058c-32.837-51.781-61.511-114.542-85.942-178.877
					C2433.395,1773.703,2400.498,1772.38,2374.661,1765.906z"/>
			</g>
			<path style="fill:#FFFFFF;" d="M1640.675,1473.059c-7.135,0-13.236-5.423-13.937-12.671c-0.746-7.708,4.898-14.558,12.604-15.305
				l714.229-69.082c7.686-0.767,14.558,4.898,15.304,12.604c0.746,7.708-4.898,14.559-12.604,15.305l-714.229,69.082
				C1641.583,1473.037,1641.126,1473.059,1640.675,1473.059z"/>
			<path style="fill:#FFFFFF;" d="M1909.969,1516.128c-7.056,0-13.129-5.314-13.918-12.491c-0.845-7.696,4.708-14.62,12.406-15.465
				l457.497-50.247c7.706-0.842,14.618,4.71,15.465,12.406c0.845,7.696-4.708,14.62-12.406,15.465l-457.497,50.247
				C1910.996,1516.099,1910.481,1516.128,1909.969,1516.128z"/>
		</g>
	</g>
</g>
</svg>
